<?xml version="1.0" encoding="UTF-8"?>
<svg id="Layer_2" data-name="Layer 2" xmlns="http://www.w3.org/2000/svg" viewBox="0 0 335.38 333.66">
  <defs>
    <style>
      .cls-1 {
        fill: #fff;
        stroke-width: 0px;
      }
    </style>
  </defs>
  <g id="Layer_1-2" data-name="Layer 1-2">
    <path class="cls-1" d="m188.15,333.66v-128.74h39.41c2.03-15.38,4-30.29,6.03-45.66h-43.82c0-11.86-.6-23.33.2-34.71.6-8.49,5.92-13.09,14.64-13.79,8.93-.72,17.94-.53,26.91-.73,1.34-.03,2.68,0,4.22,0v-41.73c-2.16-.23-4.34-.6-6.53-.66-14.32-.44-28.73-2.04-42.91.88-25.32,5.22-41.73,24.17-43.22,50.01-.69,11.94-.41,23.94-.56,35.91-.02,1.74,0,3.48,0,5.74h-39.13v45.64h38.91v127.55C84.24,327,9.48,274.32.79,183.8-8.53,86.76,66,3.9,160.38.14c95.99-3.82,175.31,72.45,175,167.55-.31,95.01-75.17,159.61-147.23,165.97h0Z"/>
  </g>
</svg>