<?xml version="1.0" encoding="UTF-8"?>
<svg id="Layer_2" data-name="Layer 2" xmlns="http://www.w3.org/2000/svg" viewBox="0 0 374.33 374.38">
  <defs>
    <style>
      .cls-1 {
        fill: #fff;
        stroke-width: 0px;
      }
    </style>
  </defs>
  <g id="Layer_1-2" data-name="Layer 1-2">
    <g>
      <path class="cls-1" d="m187.11,374.38C83.71,374.35-.12,290.33,0,186.85.12,83.65,84.13-.12,187.4,0c103.26.12,186.99,84.03,186.93,187.33-.07,103.26-83.96,187.08-187.21,187.05h0Zm115.33-187.03h.34c0-13.97.1-27.95-.05-41.92-.06-5.47-.26-11-1.07-16.4-3.61-23.94-15.44-41.8-38.66-50.87-9.63-3.76-19.73-5.37-30.01-5.41-29.31-.11-58.62-.12-87.94.02-6.21.03-12.49.4-18.61,1.42-23.59,3.93-41.07,15.97-49.8,38.95-3.58,9.42-5.06,19.26-5.07,29.32-.02,29.07-.06,58.13.04,87.2.02,5.34.28,10.75,1.1,16.02,3.45,22.23,14.09,39.47,35.18,49.07,10.36,4.72,21.42,6.76,32.71,6.83,31.06.18,62.12.2,93.17,0,12.06-.08,23.82-2.34,34.73-7.8,22.38-11.2,32.24-30.64,33.73-54.44,1.08-17.27.21-34.66.21-52h0Z"/>
      <path class="cls-1" d="m187.26,94.39c15.22,0,30.44-.15,45.66.08,5.08.08,10.24.65,15.19,1.78,18.37,4.19,30.24,17.58,32.58,36.42.51,4.07.76,8.2.77,12.31.06,28.7.25,57.41-.12,86.1-.09,6.99-1.17,14.27-3.4,20.87-5.76,17.08-18.74,26.17-36.26,27.15-21.77,1.21-43.63,1.1-65.45,1.16-14.46.04-28.96-.03-43.37-1.08-22.01-1.6-36.79-16.53-39.3-38.6-.44-3.83-.69-7.71-.7-11.56-.06-28.83-.24-57.65.13-86.48.09-6.74,1.26-13.74,3.42-20.12,5.78-17.1,18.77-25.87,36.26-27.19,15.15-1.14,30.41-.88,45.62-1.21,2.99-.07,5.99,0,8.98,0v.38h-.01Zm-.33,153.64c33.38.32,60.82-26.73,61.07-60.22.26-33.66-26.4-61.03-59.85-61.47-33.97-.44-61.44,26.32-61.82,60.22-.38,33.84,26.54,61.14,60.6,61.47Zm61.64-109.29c6.67-.08,12.03-5.57,11.94-12.22-.09-6.68-5.5-12-12.2-11.99-6.84.01-12.32,5.63-12.12,12.43.2,6.74,5.59,11.87,12.37,11.79h.01Z"/>
      <path class="cls-1" d="m187.69,147.95c21.89.43,39.17,18.18,38.7,39.77-.47,21.92-18.16,39.14-39.76,38.71-21.85-.44-39.18-18.23-38.71-39.77.47-21.9,18.17-39.13,39.77-38.7h0Z"/>
    </g>
  </g>
</svg>